<?xml version="1.0" standalone="no"?>
<!DOCTYPE svg PUBLIC "-//W3C//DTD SVG 1.1//EN" "http://www.w3.org/Graphics/SVG/1.1/DTD/svg11.dtd">
<svg xmlns="http://www.w3.org/2000/svg" viewBox="0 0 300 293" width="300" height="293">
  <path fill="#0EAAE3" opacity="1.000000" stroke="none" d=" M64.999985,257.266388 C57.025150,257.266510 49.550304,257.266510 41.404938,257.266510 C41.404938,255.074585 41.404942,253.300446 41.404938,251.526321 C41.404835,206.211304 41.439404,160.896210 41.335686,115.581429 C41.327793,112.132164 42.352745,109.707191 44.792690,107.285820 C67.725464,84.527626 90.520233,61.630371 113.454544,38.873734 C114.827332,37.511585 117.049561,36.224686 118.880493,36.219166 C166.027649,36.077080 213.175323,36.109192 260.322906,36.124126 C260.960632,36.124329 261.598328,36.291794 262.854675,36.467918 C262.854675,38.304092 262.854645,40.075066 262.854645,41.846035 C262.854614,87.161057 262.820251,132.476151 262.923798,177.790939 C262.931580,181.196136 262.095245,183.651428 259.617676,186.107788 C236.787491,208.742386 214.138718,231.560120 191.261948,254.147125 C189.508148,255.878723 186.423752,257.125702 183.951035,257.137207 C144.468018,257.320923 104.983864,257.266418 64.999985,257.266388 M201.444870,80.658707 C184.952347,80.659027 168.458862,80.547546 151.967545,80.688812 C132.639816,80.854370 116.491249,87.822342 105.203827,103.997437 C96.770332,116.082794 94.220001,129.845505 94.794632,144.382950 C96.148705,178.639526 119.303444,201.028290 153.623642,201.096375 C170.449188,201.129745 187.274887,201.109955 204.100479,201.090622 C205.857132,201.088608 207.613571,200.926010 209.336487,200.839584 C209.336487,190.249054 209.336487,180.215149 209.336487,169.826843 C207.073120,169.826843 205.258057,169.826859 203.443008,169.826828 C187.117157,169.826614 170.787598,170.018219 154.467850,169.702438 C149.915359,169.614349 145.070602,168.773529 140.916245,166.985474 C129.175079,161.932129 123.529373,148.164551 126.514832,133.505310 C129.188400,120.377487 138.785202,112.195084 152.221619,112.064552 C169.545380,111.896255 186.872009,112.027084 204.197357,112.004395 C205.945358,112.002098 207.693146,111.829849 209.783905,111.718147 C209.783905,103.508652 209.815781,95.867683 209.775375,88.227089 C209.730515,79.745018 210.743683,80.740234 201.444870,80.658707 z" transform="matrix(0.9999999999999999, 0, 0, 0.9999999999999999, 3.552713678800501e-15, 0)"/>
</svg>