<?xml version="1.0" standalone="no"?>
<!DOCTYPE svg PUBLIC "-//W3C//DTD SVG 1.1//EN" "http://www.w3.org/Graphics/SVG/1.1/DTD/svg11.dtd">
<svg xmlns="http://www.w3.org/2000/svg" viewBox="0 0 256 256" width="256" height="256">
  <path fill="#FF6B01" opacity="1.000000" stroke="none" d=" M48.000000,1.000000 C106.020897,1.000000 164.041794,1.000000 222.638672,1.328183 C229.493256,4.481432 232.223740,9.308385 232.051132,16.202986 C231.844864,24.442032 232.067841,32.691826 232.032227,41.404930 C231.929779,86.366280 231.843430,130.859818 231.960037,175.352829 C231.971375,179.676895 230.880447,181.057129 226.393539,181.029800 C195.232178,180.839996 164.069092,180.947571 132.906586,180.924652 C104.578346,180.903824 76.250137,180.838608 47.922417,180.339600 C47.948612,120.257500 47.974304,60.628750 48.000000,1.000000 M174.433716,59.312263 C175.031723,58.680851 176.130432,58.063347 176.148438,57.415817 C176.290939,52.286488 176.227722,47.151451 176.227722,41.881325 C154.909698,41.881325 134.039932,41.881325 113.111160,41.881325 C113.111160,75.003220 113.111160,107.749123 113.111160,140.606934 C121.391113,140.606934 129.417130,140.606934 137.988953,140.606934 C137.988953,127.182014 137.988953,114.132988 137.988953,100.680222 C148.967178,100.680222 159.396286,100.680222 169.961151,100.680222 C169.961151,94.686295 169.961151,89.116837 169.961151,82.974884 C159.117950,82.974884 148.558502,82.974884 138.147217,82.974884 C138.147217,74.837036 138.147217,67.280319 138.147217,59.345573 C150.177979,59.345573 161.811020,59.345573 174.433716,59.312263 z" transform="matrix(1, 0, 0, 1, -1.4210854715202004e-14, 0)"/>
  <path fill="#933D01" opacity="1.000000" stroke="none" d=" M47.921917,180.792953 C76.250137,180.838608 104.578346,180.903824 132.906586,180.924652 C164.069092,180.947571 195.232178,180.839996 226.393539,181.029800 C230.880447,181.057129 231.971375,179.676895 231.960037,175.352829 C231.843430,130.859818 231.929779,86.366280 232.491913,41.424469 C236.185699,40.983982 239.347107,40.995018 242.508530,40.999233 C249.987610,41.009197 249.995941,41.007885 249.996262,48.342556 C249.999252,117.895035 249.999191,187.447525 250.000000,257.000000 C178.979111,257.000000 107.958214,257.000000 36.330769,256.692078 C30.122972,251.939575 28.944532,245.837616 28.966806,239.123703 C29.017904,223.723022 28.889959,208.321762 29.012537,192.629852 C35.434219,188.490295 41.678070,184.641632 47.921917,180.792953 M124.766113,207.617615 C124.608810,213.743958 124.021187,219.898132 124.414886,225.988861 C124.810951,232.116028 129.616547,236.088959 136.184998,236.862747 C143.784241,237.757965 150.460846,234.735291 152.364975,228.965698 C153.972672,224.094284 154.231964,218.988953 150.114059,215.011688 C146.086899,211.122055 141.247742,210.967758 136.216858,212.921432 C135.516022,213.193604 134.833771,213.513672 133.782318,213.967041 C133.782318,212.077789 133.402496,210.474304 133.879883,209.189301 C134.457291,207.635086 135.526016,205.506592 136.805496,205.151306 C138.623276,204.646515 141.914978,204.812363 142.669357,205.953140 C145.317780,209.957962 148.651047,208.195847 151.893005,208.258408 C151.631973,202.431793 148.629532,199.142090 142.874146,198.101288 C134.178146,196.528717 128.304047,199.385254 124.766113,207.617615 M158.039825,217.497269 C158.083374,220.158722 157.892670,222.848877 158.214661,225.476212 C159.155594,233.153992 164.813370,237.281647 173.630630,236.949982 C181.726685,236.645462 186.722549,232.087936 187.008453,224.471222 C187.189362,219.651413 187.176834,214.814346 187.002731,209.994003 C186.827911,205.153732 184.683487,201.363937 180.144165,199.248322 C168.700455,193.914795 158.131485,200.521652 158.041214,213.039902 C158.032806,214.204926 158.039902,215.370056 158.039825,217.497269 M115.086906,214.408707 C120.216919,209.387985 119.435722,201.684677 112.784065,199.619232 C108.196854,198.194839 102.689034,198.550461 97.854630,199.477234 C93.902786,200.234802 91.389145,203.757217 91.159309,208.516663 C94.971428,208.439407 98.754074,210.254944 101.483421,205.779465 C102.114929,204.743958 105.456604,204.794846 107.286896,205.301163 C108.171837,205.545959 109.237000,208.330093 108.804565,209.382858 C108.188034,210.883804 106.406570,212.095001 104.859436,212.957962 C103.842323,213.525299 102.361252,213.260849 101.111801,213.366852 C101.111801,215.563156 101.111801,217.457306 101.111801,219.306580 C102.967682,219.490555 104.671600,219.231644 105.888550,219.882812 C107.608482,220.803101 109.868614,222.186066 110.235268,223.758835 C110.619888,225.408630 109.512939,228.600876 108.209358,229.167725 C106.284874,230.004547 102.317558,230.007584 101.486298,228.802536 C98.444580,224.392990 94.753944,226.138000 91.057831,226.227020 C91.399193,236.688248 105.715240,239.029724 113.369148,235.355453 C117.065094,233.581177 119.564873,230.959961 119.940712,226.687912 C120.323257,222.339706 119.225441,218.797913 114.898674,216.809967 C114.539940,216.645157 114.630638,215.502136 115.086906,214.408707 z" transform="matrix(1, 0, 0, 1, -1.4210854715202004e-14, 0)"/>
  <path fill="#FF9548" opacity="1.000000" stroke="none" d=" M47.922417,180.339600 C41.678070,184.641632 35.434219,188.490295 28.698563,192.752472 C21.816721,196.990311 15.426691,200.814651 8.311352,205.073074 C8.151480,202.686508 8.011443,201.569885 8.011230,200.453232 C8.000334,143.205078 8.019519,85.956902 7.947216,28.708834 C7.943612,25.855396 8.890834,24.309834 11.371492,22.829981 C23.332075,15.694822 35.138733,8.301640 47.000000,1.000000 C47.000000,1.000000 47.500000,1.000000 47.750000,1.000000 C47.974304,60.628750 47.948612,120.257500 47.922417,180.339600 z" transform="matrix(1, 0, 0, 1, -1.4210854715202004e-14, 0)"/>
  <path fill="#FFFDFD" opacity="1.000000" stroke="none" d=" M173.938889,59.328918 C161.811020,59.345573 150.177979,59.345573 138.147217,59.345573 C138.147217,67.280319 138.147217,74.837036 138.147217,82.974884 C148.558502,82.974884 159.117950,82.974884 169.961151,82.974884 C169.961151,89.116837 169.961151,94.686295 169.961151,100.680222 C159.396286,100.680222 148.967178,100.680222 137.988953,100.680222 C137.988953,114.132988 137.988953,127.182014 137.988953,140.606934 C129.417130,140.606934 121.391113,140.606934 113.111160,140.606934 C113.111160,107.749123 113.111160,75.003220 113.111160,41.881325 C134.039932,41.881325 154.909698,41.881325 176.227722,41.881325 C176.227722,47.151451 176.290939,52.286488 176.148438,57.415817 C176.130432,58.063347 175.031723,58.680851 173.938889,59.328918 z" transform="matrix(1, 0, 0, 1, -1.4210854715202004e-14, 0)"/>
  <path fill="#FBF8F6" opacity="1.000000" stroke="none" d=" M124.856293,207.218506 C128.304047,199.385254 134.178146,196.528717 142.874146,198.101288 C148.629532,199.142090 151.631973,202.431793 151.893005,208.258408 C148.651047,208.195847 145.317780,209.957962 142.669357,205.953140 C141.914978,204.812363 138.623276,204.646515 136.805496,205.151306 C135.526016,205.506592 134.457291,207.635086 133.879883,209.189301 C133.402496,210.474304 133.782318,212.077789 133.782318,213.967041 C134.833771,213.513672 135.516022,213.193604 136.216858,212.921432 C141.247742,210.967758 146.086899,211.122055 150.114059,215.011688 C154.231964,218.988953 153.972672,224.094284 152.364975,228.965698 C150.460846,234.735291 143.784241,237.757965 136.184998,236.862747 C129.616547,236.088959 124.810951,232.116028 124.414886,225.988861 C124.021187,219.898132 124.608810,213.743958 124.856293,207.218506 M142.270950,228.795593 C142.651810,226.001740 143.359467,223.189728 143.205780,220.425613 C143.162125,219.640533 140.481979,218.246948 139.237137,218.459229 C137.328522,218.784683 134.549088,219.904526 134.074097,221.331360 C133.388672,223.390320 133.656784,226.719528 134.979660,228.205612 C136.125839,229.493179 139.306259,228.969894 142.270950,228.795593 z" transform="matrix(1, 0, 0, 1, -1.4210854715202004e-14, 0)"/>
  <path fill="#FDFAF9" opacity="1.000000" stroke="none" d=" M158.039825,217.016205 C158.039902,215.370056 158.032806,214.204926 158.041214,213.039902 C158.131485,200.521652 168.700455,193.914795 180.144165,199.248322 C184.683487,201.363937 186.827911,205.153732 187.002731,209.994003 C187.176834,214.814346 187.189362,219.651413 187.008453,224.471222 C186.722549,232.087936 181.726685,236.645462 173.630630,236.949982 C164.813370,237.281647 159.155594,233.153992 158.214661,225.476212 C157.892670,222.848877 158.083374,220.158722 158.039825,217.016205 M175.431259,205.190475 C172.058807,203.986420 168.442352,204.036972 167.975677,208.118729 C167.287140,214.141190 167.526825,220.322983 168.015137,226.385040 C168.121704,227.707916 170.856003,229.587418 172.542892,229.779251 C173.973389,229.941925 176.845932,228.198883 177.002533,227.022491 C177.949585,219.908340 179.506714,212.647385 175.431259,205.190475 z" transform="matrix(1, 0, 0, 1, -1.4210854715202004e-14, 0)"/>
  <path fill="#FCF8F6" opacity="1.000000" stroke="none" d=" M114.799713,214.611160 C114.630638,215.502136 114.539940,216.645157 114.898674,216.809967 C119.225441,218.797913 120.323257,222.339706 119.940712,226.687912 C119.564873,230.959961 117.065094,233.581177 113.369148,235.355453 C105.715240,239.029724 91.399193,236.688248 91.057831,226.227020 C94.753944,226.138000 98.444580,224.392990 101.486298,228.802536 C102.317558,230.007584 106.284874,230.004547 108.209358,229.167725 C109.512939,228.600876 110.619888,225.408630 110.235268,223.758835 C109.868614,222.186066 107.608482,220.803101 105.888550,219.882812 C104.671600,219.231644 102.967682,219.490555 101.111801,219.306580 C101.111801,217.457306 101.111801,215.563156 101.111801,213.366852 C102.361252,213.260849 103.842323,213.525299 104.859436,212.957962 C106.406570,212.095001 108.188034,210.883804 108.804565,209.382858 C109.237000,208.330093 108.171837,205.545959 107.286896,205.301163 C105.456604,204.794846 102.114929,204.743958 101.483421,205.779465 C98.754074,210.254944 94.971428,208.439407 91.159309,208.516663 C91.389145,203.757217 93.902786,200.234802 97.854630,199.477234 C102.689034,198.550461 108.196854,198.194839 112.784065,199.619232 C119.435722,201.684677 120.216919,209.387985 114.799713,214.611160 z" transform="matrix(1, 0, 0, 1, -1.4210854715202004e-14, 0)"/>
  <path fill="#97440C" opacity="1.000000" stroke="none" d=" M141.929260,229.021301 C139.306259,228.969894 136.125839,229.493179 134.979660,228.205612 C133.656784,226.719528 133.388672,223.390320 134.074097,221.331360 C134.549088,219.904526 137.328522,218.784683 139.237137,218.459229 C140.481979,218.246948 143.162125,219.640533 143.205780,220.425613 C143.359467,223.189728 142.651810,226.001740 141.929260,229.021301 z" transform="matrix(1, 0, 0, 1, -1.4210854715202004e-14, 0)"/>
  <path fill="#99460E" opacity="1.000000" stroke="none" d=" M175.720428,205.448303 C179.506714,212.647385 177.949585,219.908340 177.002533,227.022491 C176.845932,228.198883 173.973389,229.941925 172.542892,229.779251 C170.856003,229.587418 168.121704,227.707916 168.015137,226.385040 C167.526825,220.322983 167.287140,214.141190 167.975677,208.118729 C168.442352,204.036972 172.058807,203.986420 175.720428,205.448303 z" transform="matrix(1, 0, 0, 1, -1.4210854715202004e-14, 0)"/>
</svg>