<?xml version="1.0" standalone="no"?>
<!DOCTYPE svg PUBLIC "-//W3C//DTD SVG 20010904//EN" "http://www.w3.org/TR/2001/REC-SVG-20010904/DTD/svg10.dtd">
<svg xmlns="http://www.w3.org/2000/svg" version="1.0" width="516" height="560" viewBox="0 0 516.000000 560.000000" preserveAspectRatio="xMidYMid meet">
<metadata>
Created by potrace 1.16, written by Peter Selinger 2001-2019
</metadata>
<g transform="translate(0.000000,560.000000) scale(0.100000,-0.100000)" fill="#000000" stroke="none">
<path d="M1915 5421 c-16 -4 -39 -13 -51 -19 -37 -19 -93 -90 -103 -129 -5 -21 -13 -153 -16 -293 -3 -140 -8 -264 -10 -276 -4 -18 -14 -22 -72 -28 -283 -29 -610 -164 -848 -351 -347 -273 -558 -656 -595 -1077 -64 -745 452 -1432 1225 -1633 316 -82 708 -70 1010 31 336 112 629 319 824 581 66 89 145 224 178 303 l27 68 669 293 c428 187 679 302 698 320 16 15 38 47 49 71 19 42 20 69 20 833 0 547 -4 802 -11 830 -7 25 -29 58 -58 86 -37 38 -57 49 -101 58 -51 11 -2777 342 -2796 340 -5 -1 -22 -4 -39 -8z m655 -186 c313 -49 758 -109 1305 -175 505 -61 843 -106 863 -115 19 -9 32 -22 31 -32 0 -11 -167 -163 -404 -368 -474 -411 -491 -425 -514 -425 -15 0 -1733 1149 -1765 1181 -6 6 -6 9 0 9 5 0 223 -34 484 -75z m272 -617 c504 -340 929 -623 943 -628 41 -16 106 -11 150 9 22 11 220 176 440 368 l400 349 3 -685 c2 -567 0 -688 -12 -705 -9 -14 -210 -107 -605 -280 -326 -142 -594 -256 -596 -254 -2 2 2 46 10 98 59 383 5 759 -149 1035 -245 438 -776 729 -1430 784 -65 6 -120 12 -121 13 -4 6 15 503 20 516 3 8 10 10 17 6 7 -4 426 -286 930 -626z m-1092 -125 c0 -32 -18 -596 -40 -1254 -27 -825 -36 -1207 -29 -1230 20 -72 86 -119 167 -119 49 0 112 27 725 306 370 169 687 313 706 321 l34 14 -33 -58 c-182 -324 -498 -580 -861 -698 -160 -52 -282 -74 -445 -82 -790 -35 -1482 483 -1610 1207 -22 124 -22 326 0 450 83 471 419 879 886 1078 147 63 357 118 463 121 l37 1 0 -57z m351 27 c132 -14 258 -40 383 -80 l98 -32 -21 -22 c-19 -20 -21 -34 -21 -163 0 -141 0 -142 26 -162 24 -19 40 -21 179 -21 139 0 155 2 179 21 22 17 26 28 26 72 l0 51 41 -39 c22 -22 47 -52 55 -67 8 -16 21 -28 28 -28 14 0 67 -65 130 -160 l36 -55 -67 -3 c-37 -2 -73 -8 -80 -14 -19 -15 -19 -321 0 -336 8 -7 71 -13 153 -14 l139 -3 12 -55 c6 -30 12 -70 12 -87 l1 -33 -137 0 c-76 0 -145 -5 -153 -10 -12 -7 -16 -39 -18 -159 -2 -96 1 -157 8 -170 10 -20 19 -21 155 -21 l145 0 -7 -32 c-3 -18 -15 -67 -27 -108 l-21 -75 -110 -3 c-140 -3 -145 -8 -145 -126 l0 -82 -55 -27 c-31 -15 -58 -27 -60 -27 -3 0 -5 51 -5 114 0 91 -3 118 -16 130 -23 24 -365 24 -388 0 -13 -13 -16 -43 -16 -168 0 -181 -1 -179 104 -186 l71 -5 -226 -102 -226 -103 -120 0 c-139 0 -150 -6 -161 -85 -6 -42 -11 -48 -48 -65 l-42 -18 -4 63 c-6 90 -21 105 -111 105 l-70 0 7 77 c3 42 6 88 6 103 0 26 2 27 65 33 103 8 105 12 105 183 0 142 0 143 -26 163 -20 15 -41 21 -80 21 l-54 0 0 43 c0 23 3 72 7 110 l6 67 53 0 c88 0 94 12 94 177 0 127 -2 138 -22 160 -17 18 -32 23 -70 23 l-48 0 0 74 c0 96 4 106 45 106 24 0 39 7 54 26 19 24 21 40 21 156 0 124 -1 130 -25 153 -13 14 -36 25 -50 25 l-25 0 0 104 0 104 30 5 c16 4 39 16 50 27 18 18 20 33 20 153 0 144 -8 169 -55 181 -23 6 -25 11 -25 66 l0 60 94 0 c52 0 140 -5 197 -10z"/>
<path d="M2014 4399 c-12 -6 -27 -22 -33 -35 -14 -32 -14 -246 0 -277 18 -40 50 -47 200 -47 145 0 189 10 203 45 3 9 6 74 6 145 0 181 7 174 -197 177 -97 2 -166 -2 -179 -8z"/>
<path d="M1999 3811 c-23 -18 -24 -26 -27 -153 -3 -124 -2 -135 18 -161 l21 -27 169 0 169 0 20 26 c19 24 21 40 21 156 0 124 -1 130 -25 153 -24 24 -28 25 -183 25 -142 0 -162 -2 -183 -19z"/>
<path d="M2552 3818 c-8 -8 -12 -62 -12 -175 0 -160 0 -163 23 -168 12 -3 103 -4 202 -3 l180 3 3 164 c2 112 -1 168 -9 177 -15 19 -369 20 -387 2z"/>
<path d="M2026 3269 c-26 -20 -26 -21 -26 -160 0 -188 -11 -179 205 -179 216 0 205 -9 205 178 0 188 7 182 -202 182 -142 0 -158 -2 -182 -21z"/>
<path d="M2570 3271 c-15 -28 -13 -314 2 -329 17 -17 379 -17 396 0 15 15 17 301 2 329 -10 18 -23 19 -200 19 -177 0 -190 -1 -200 -19z"/>
<path d="M2026 2689 c-26 -20 -26 -21 -26 -159 0 -194 -10 -185 203 -185 218 0 207 -10 207 181 0 142 0 143 -26 163 -24 19 -40 21 -179 21 -139 0 -155 -2 -179 -21z"/>
<path d="M2943 1762 c-86 -30 -161 -94 -201 -169 -11 -20 33 -77 509 -670 286 -356 535 -663 552 -681 46 -49 97 -72 158 -72 65 0 111 27 150 89 24 36 29 56 29 104 0 32 -4 66 -9 76 -6 10 -249 314 -541 677 -594 736 -541 683 -647 646z"/>
</g>
</svg>