<?xml version="1.0" standalone="no"?>
<!DOCTYPE svg PUBLIC "-//W3C//DTD SVG 1.1//EN" "http://www.w3.org/Graphics/SVG/1.1/DTD/svg11.dtd">
<svg xmlns="http://www.w3.org/2000/svg" viewBox="0 0 253.915 252.756" width="253.9149932861328" height="252.75599670410156">
  <g transform="matrix(1, 0, 0, 1, -2.724593005317246, -3.2437530530617558)">
    <path fill="#27234B" opacity="1.000000" stroke="none" d=" M257.000000,18.999996 C257.000000,92.020897 257.000000,165.041794 256.645813,238.556610 C252.655884,246.597656 247.940735,253.038895 239.435928,255.668442 C239.178040,255.748154 239.140350,256.540100 239.000000,257.000000 C165.979111,257.000000 92.958206,257.000000 19.443340,256.645813 C18.002352,255.703751 17.108931,254.995255 16.099939,254.546814 C7.153463,250.570633 2.844059,244.162216 2.877811,233.930237 C3.110342,163.439163 3.197548,92.945763 2.769061,22.456532 C2.710547,12.830487 12.548022,2.698493 22.666813,2.762768 C93.322441,3.211575 163.982468,3.079836 234.640518,2.906276 C244.226501,2.882729 250.292496,7.075308 254.206512,15.387701 C254.839584,16.732161 256.054199,17.802790 257.000000,18.999996 M118.042313,16.531960 C53.991299,23.650118 9.557621,78.865738 16.802387,142.337997 C23.836826,203.967545 79.819260,248.299942 141.733490,241.270767 C205.720047,234.006317 250.764694,174.949234 240.784271,111.407372 C231.576859,52.787071 178.472076,11.362256 118.042313,16.531960 M14.941809,24.677227 C20.153690,27.235218 24.592535,26.056643 24.942585,21.566317 C25.114044,19.366892 23.870026,16.009855 22.181322,15.010260 C20.526686,14.030827 17.025837,14.660352 15.172012,15.868061 C12.103409,17.867163 12.227742,21.101671 14.941809,24.677227 M243.052780,24.682554 C245.471848,22.005709 246.280197,18.776110 243.368790,16.453333 C241.548050,15.000732 237.847382,13.983616 236.099701,14.896061 C234.322784,15.823773 232.972748,19.412220 233.104767,21.740902 C233.328339,25.684586 237.331879,26.889650 243.052780,24.682554 M17.052828,232.118713 C13.149037,234.047897 11.323836,237.272812 14.114215,240.793198 C15.542909,242.595673 19.407803,243.890945 21.538143,243.263733 C23.247856,242.760345 25.043762,238.972092 24.949810,236.718719 C24.789789,232.880630 21.726500,231.333923 17.052828,232.118713 M232.726089,237.554840 C233.678696,242.991974 237.167343,245.750092 240.888748,243.379517 C242.847961,242.131470 244.772552,239.035370 244.657028,236.884125 C244.562378,235.121674 241.678802,232.664444 239.580185,232.045410 C236.141586,231.031128 233.691635,233.152344 232.726089,237.554840 z"/>
    <path fill="#28244B" opacity="1.000000" stroke="none" d=" M76.996559,83.975708 C72.606163,81.587479 68.582016,79.278694 64.452858,77.176155 C59.298656,74.551689 57.353882,69.774704 60.640846,65.098587 C69.325531,52.743534 79.958801,42.755310 95.176384,38.801239 C100.037323,37.538189 104.427391,38.077385 107.112663,42.369743 C111.396896,49.217995 116.157158,56.076756 118.737686,63.608894 C122.431358,74.390076 124.346748,85.780922 127.010109,96.914169 C127.388756,98.496979 127.703545,100.095078 128.047836,101.685883 C130.651749,101.896599 132.954712,102.082954 136.047165,102.333199 C138.064743,96.835953 140.310013,91.180046 142.221680,85.413544 C146.211853,73.377289 149.368591,61.185936 149.092041,48.319649 C148.966003,42.454681 152.685181,38.802391 158.209259,39.817543 C172.904007,42.517982 186.198792,48.033413 196.217209,59.871922 C200.207748,64.587410 200.572144,69.153008 197.844696,74.509941 C192.734818,84.546204 184.866501,92.158226 176.301529,99.061607 C168.824722,105.087944 160.936966,110.604439 152.985611,116.528862 C153.470810,117.725319 154.008484,119.051163 154.682571,120.713371 C172.568573,117.640053 190.159683,114.395409 205.922729,105.073051 C213.824493,100.399895 218.476013,102.062614 221.196548,110.813911 C224.956619,122.909050 226.604218,135.115555 223.213806,147.636063 C220.792923,156.576172 217.721115,159.127060 208.423447,159.291153 C191.449539,159.590729 176.279343,153.123383 161.138672,146.591354 C158.103516,145.281937 155.152344,143.777847 151.859848,142.220383 C150.910095,143.467606 149.945572,144.734222 148.765640,146.283722 C160.926132,160.294922 173.333725,173.826538 189.868225,182.781143 C196.214722,186.218231 197.492752,191.150772 192.828644,196.569565 C183.361526,207.568512 172.690170,216.756424 157.636276,219.483109 C151.831100,220.534592 148.006500,218.634979 144.834076,214.217773 C137.246719,203.653320 134.370743,191.354492 132.098358,178.901917 C130.668915,171.068649 129.781250,163.136505 128.638397,155.164139 C124.820602,153.166809 123.288963,155.015030 122.197815,158.771591 C117.315964,175.578644 112.734352,192.385696 113.903534,210.188019 C114.233017,215.204727 110.830620,218.740982 105.887550,218.171326 C90.006149,216.341049 75.445557,211.500854 64.756927,198.562317 C62.137814,195.391876 61.700989,192.184769 62.967010,188.377304 C67.018425,176.193085 75.776665,167.504318 84.850853,159.173172 C91.554474,153.018463 98.797775,147.451599 106.010002,141.448563 C105.447792,140.230011 104.841881,138.916748 104.035393,137.168762 C86.031700,141.566559 68.184875,145.937683 52.718227,156.685669 C47.611858,160.234177 42.346573,159.894608 40.004772,154.799347 C33.843445,141.393524 30.587339,127.401291 34.670166,112.671974 C36.982300,104.330643 39.451363,102.616058 48.001415,101.916000 C60.546207,100.888855 72.462105,103.893364 84.215118,107.659096 C91.325943,109.937447 98.281342,112.700897 105.552994,115.335686 C108.125061,113.264740 109.017036,111.236664 105.679970,108.443138 C96.134727,100.452614 86.758743,92.259888 76.996559,83.975708 M139.832108,138.310730 C140.848938,136.613983 142.124176,135.018753 142.837646,133.202805 C145.851227,125.532745 141.788086,117.190178 133.829330,114.402237 C126.163170,111.716797 117.496704,116.116692 115.163597,123.878662 C113.327187,129.988220 115.478836,136.547516 120.522476,140.215179 C126.114494,144.281616 132.489029,143.814514 139.832108,138.310730 z"/>
  </g>
</svg>